<svg width="1216" height="1405" viewBox="0 0 1216 1405" fill="none" xmlns="http://www.w3.org/2000/svg">
<path opacity="0.1" fill-rule="evenodd" clip-rule="evenodd" d="M1544.31 -268.617L1635.3 -120.525H1816.41V-416.248L1544.31 -268.617ZM1474.57 -230.78L1542.31 -120.525H1436.63L1355.57 -166.215L1474.57 -230.78ZM1107.2 -120.525L1193.8 -167.507L1076.97 -233.359L1007.65 -120.525H1107.2ZM914.661 -120.525L1007.9 -272.29L724.284 -432.155V-120.525H914.661ZM644.545 -566.995L1048.92 -339.06L1274.98 -707L1503.27 -335.415L1896.15 -548.574V-120.525L2335.5 -120.525L2110.79 259.475L2498 477.735L2130.22 685.042L2369.72 1074.88H1896.15V1508.96L1499.23 1293.61L1265.41 1689L1036.33 1301.63L644.545 1522.46V1074.88H180.234L409.196 702.204L0 480.193L416.825 254.042L195.319 -120.524L644.545 -120.525V-566.995ZM1275.06 -211.596L1117.99 -300.13L1274.98 -555.653L1433.53 -297.578L1275.06 -211.596ZM2197.39 -42.6752L2041.73 220.55L1896.15 138.494V-42.6751L2197.39 -42.6752ZM2001.86 287.97L1896.15 228.387V304.064L1945.16 383.839L2001.86 287.97ZM1740.54 50.7814L1816.41 93.5477V-42.6751H1683.12L1740.54 50.7814ZM1438.61 1074.88L1351.13 1124.19L1469.4 1188.36L1536.51 1074.88H1438.61ZM1096.08 1074.88L1189.35 1125.48L1065.52 1195.28L994.315 1074.88H1096.08ZM1270.61 1169.57L1105.39 1262.7L1265.41 1533.3L1429.52 1255.79L1270.61 1169.57ZM902.24 1074.88L996.463 1234.21L724.284 1387.62V1074.88H902.24ZM856.202 997.028H724.284V873.157L810.664 920.023L856.202 997.028ZM644.545 740.831V639.115L593.731 553.189L519.972 673.243L644.545 740.831ZM644.545 319.134V219.555L526.41 283.65L595.042 399.708L644.545 319.134ZM818.391 36.1708L724.284 87.2288V-42.675H866.832L818.391 36.1708ZM644.545 130.492V-42.675L333.432 -42.6749L486.535 216.221L644.545 130.492ZM644.545 997.028V829.894L478.934 740.041L321.047 997.028H644.545ZM1816.41 861.922L1723.57 914.254L1674.62 997.028H1816.41V861.922ZM1896.15 997.028V816.975L2061.15 723.972L2228.91 997.028H1896.15ZM1896.15 727.082L2020.13 657.202L1946.48 537.321L1896.15 622.417V727.082ZM1992.08 460.203L2089.19 618.271L2338.52 477.735L2070.92 326.895L1992.08 460.203ZM1816.41 1074.88H1628.58L1539.11 1226.18L1816.41 1376.63V1074.88ZM450.234 635.407L548.126 476.072L456.701 321.471L164.155 480.193L450.234 635.407ZM1276.2 -78.3314C958.072 -78.3314 692.22 165.906 692.22 476.605C692.22 787.303 958.072 1031.54 1276.2 1031.54C1594.32 1031.54 1860.17 787.303 1860.17 476.605C1860.17 165.906 1594.32 -78.3314 1276.2 -78.3314Z" fill="#F39314"/>
<g opacity="0.4">
<path d="M1090 704L1212.23 632.732L1212.03 632.678L1212.29 632.532L1188.83 626.353L1172.23 621.827L1172.04 621.932L1102.98 603.744L1196.13 550.57L1155.79 539.947L1062.74 593.147L1062.57 593.102L1026.2 613.936L1135.47 642.713L1066 682C1074.36 691.001 1079.51 695.858 1090 704Z" fill="#F39314"/>
<path d="M1396.12 403.678L1410.85 428.762L1067.28 623.719L1052.55 598.634L1396.12 403.678Z" fill="#F39314"/>
<path d="M1089.5 704C1079.92 696.08 1074.7 691.394 1066 682L1133 644.314L1147.73 669.398L1089.5 704Z" fill="#F39314"/>
<path fill-rule="evenodd" clip-rule="evenodd" d="M1215.99 522.61C1234.77 554.58 1276.36 565.534 1308.89 547.076C1341.42 528.618 1352.56 487.738 1333.78 455.768C1315 423.798 1273.41 412.844 1240.88 431.302C1208.35 449.76 1197.21 490.64 1215.99 522.61ZM1190.46 537.093C1217.38 582.917 1277 598.617 1323.62 572.161C1370.25 545.704 1386.22 487.109 1359.3 441.286C1332.39 395.462 1272.77 379.761 1226.14 406.218C1179.52 432.674 1163.55 491.269 1190.46 537.093Z" fill="#F39314"/>
</g>
<path opacity="0.3" fill-rule="evenodd" clip-rule="evenodd" d="M1059.65 233.379C1047.12 216.538 1030.78 194.59 1078.21 126.843C1113.02 77.1137 1062.14 56.1749 1046.07 53.5568C1095.49 15.984 1190.68 27.3932 1174.62 158.259C1171.94 180.07 1204.95 184.432 1204.07 160.877C1198.72 16.9206 1337.97 27.3912 1354.04 53.5568C1320.12 66.6458 1264.6 104.34 1313.87 150.406C1322.28 111.599 1355.5 102.352 1385.46 94.0132C1422.25 83.7707 1454.12 74.9002 1429.02 14.3032C1477.23 16.9206 1576.17 99.7813 1450.45 176.579C1429.02 189.666 1450.45 215.161 1469.19 197.518C1541.5 129.467 1627.53 157.806 1651.29 228.927C1613.8 215.84 1540.43 206.941 1546.85 276.039C1546.91 276.649 1548.4 275.552 1550.98 273.642C1559.49 267.363 1579.88 252.307 1600.41 260.335C1607.44 263.769 1614.16 267.133 1620.58 270.35C1682.71 301.454 1717.07 318.656 1731.63 249.866C1757.52 304.83 1770.73 408.477 1616.48 383.351C1600.41 380.733 1593.8 414.939 1627.19 412.142C1720.92 404.29 1782.93 483.999 1728.96 556.096C1714.67 522.943 1673.79 469.2 1624.51 519.453C1664.65 520.642 1675.51 554.761 1685.69 586.751C1697.93 625.2 1709.19 660.574 1769.12 632C1769.12 700.051 1653.97 744.546 1600.41 645.087C1590.55 626.765 1565.6 661.165 1581.67 673.878C1637.9 718.373 1649.15 827.778 1544.18 846.623C1562.03 816.96 1578.99 755.016 1504.01 744.546C1530.43 775.07 1512.68 805.066 1495.94 833.356C1475.35 868.137 1456.3 900.337 1522.75 927.761C1472.76 951.318 1376.54 961.787 1391.53 815.215C1393.94 791.659 1362.07 794.276 1362.07 820.45C1362.97 877.159 1326.19 980.109 1204.07 927.761C1241.57 913.802 1303.69 873.32 1252.28 823.067C1254.7 858.621 1218.69 870.564 1184.28 881.978C1142.69 895.772 1103.42 908.795 1137.13 961.787C1083.57 953.935 1003.96 877.791 1118.38 799.511C1145.16 781.189 1099.63 755.016 1086.24 786.424C1065.52 835.046 936.278 844.006 914.854 747.164C946.097 765.485 1010.73 781.189 1019.29 697.434C989.366 735.218 957.114 716.244 926.325 698.131C890.996 677.347 857.594 657.697 831.838 726.225C805.951 677.367 793.491 574.554 946.99 592.74C963.058 594.643 971.091 563.949 938.956 563.949C874.685 566.566 775.6 524.688 837.193 417.376C847.013 449.657 881.112 502.702 938.956 456.637C898.239 456.637 890.19 426.801 882.238 397.326C872.408 360.89 862.727 325.004 791.668 346.708C811.306 293.488 874.149 215.84 968.414 331.004C983.41 349.325 1001.82 320.534 987.159 307.447C946.097 270.804 882.719 160.877 1016.62 129.467C985.794 199.754 1006.68 216.872 1062.14 236.772C1061.34 235.656 1060.5 234.53 1059.65 233.379ZM1279.06 773.337C1438.79 773.337 1568.28 646.779 1568.28 490.663C1568.28 334.546 1438.79 207.988 1279.06 207.988C1119.33 207.988 989.837 334.546 989.837 490.663C989.837 646.779 1119.33 773.337 1279.06 773.337Z" fill="#F39314"/>
<path opacity="0.6" fill-rule="evenodd" clip-rule="evenodd" d="M1331.06 331.283L1350.02 362.299H1387.77V300.364L1331.06 331.283ZM1316.53 339.207L1330.64 362.299H1308.62L1291.72 352.729L1316.53 339.207ZM1239.96 362.299L1258.01 352.459L1233.66 338.667L1219.21 362.299H1239.96ZM1199.83 362.299L1219.26 330.514L1160.15 297.032V362.299H1199.83ZM1143.53 268.793L1227.81 316.53L1274.93 239.471L1322.51 317.293L1404.39 272.65V362.299L1495.96 362.299L1449.13 441.883L1529.83 487.594L1453.18 531.011L1503.09 612.656H1404.39V703.568L1321.66 658.466L1272.93 741.274L1225.19 660.145L1143.53 706.396V612.656H1046.76L1094.48 534.606L1009.19 488.109L1096.07 440.746L1049.9 362.299L1143.53 362.299V268.793ZM1274.94 343.225L1242.21 324.683L1274.93 271.168L1307.97 325.218L1274.94 343.225ZM1467.18 378.603L1434.73 433.731L1404.39 416.546V378.603L1467.18 378.603ZM1426.42 447.851L1404.39 435.372V451.222L1414.61 467.929L1426.42 447.851ZM1371.96 398.176L1387.77 407.133V378.603H1359.99L1371.96 398.176ZM1309.03 612.656L1290.8 622.984L1315.45 636.423L1329.43 612.656H1309.03ZM1237.64 612.656L1257.08 623.255L1231.27 637.873L1216.43 612.656H1237.64ZM1274.02 632.488L1239.58 651.993L1272.93 708.666L1307.14 650.545L1274.02 632.488ZM1197.24 612.656L1216.88 646.025L1160.15 678.156V612.656H1197.24ZM1187.64 596.352H1160.15V570.409L1178.15 580.224L1187.64 596.352ZM1143.53 542.695V521.393L1132.94 503.397L1117.57 528.54L1143.53 542.695ZM1143.53 454.378V433.523L1118.91 446.946L1133.21 471.253L1143.53 454.378ZM1179.76 395.116L1160.15 405.809V378.603H1189.86L1179.76 395.116ZM1143.53 414.87V378.603L1078.69 378.603L1110.6 432.825L1143.53 414.87ZM1143.53 596.352V561.348L1109.01 542.53L1076.1 596.352H1143.53ZM1387.77 568.056L1368.42 579.016L1358.22 596.352H1387.77V568.056ZM1404.39 596.352V558.643L1438.78 539.165L1473.75 596.352H1404.39ZM1404.39 539.816L1430.23 525.181L1414.88 500.074L1404.39 517.896V539.816ZM1424.39 483.923L1444.63 517.027L1496.59 487.594L1440.82 456.003L1424.39 483.923ZM1387.77 612.656H1348.62L1329.98 644.344L1387.77 675.854V612.656ZM1103.03 520.616L1123.43 487.246L1104.38 454.867L1043.41 488.109L1103.03 520.616ZM1275.18 371.135C1208.87 371.135 1153.47 422.287 1153.47 487.358C1153.47 552.428 1208.87 603.58 1275.18 603.58C1341.48 603.58 1396.89 552.428 1396.89 487.358C1396.89 422.287 1341.48 371.135 1275.18 371.135Z" fill="#F5F5F5"/>
</svg>
