<svg width="375" height="1056" viewBox="0 0 375 1056" fill="none" xmlns="http://www.w3.org/2000/svg">
<path opacity="0.1" fill-rule="evenodd" clip-rule="evenodd" d="M514.262 132.75L557.168 202.593H642.579V63.1243L514.262 132.75ZM481.375 150.594L513.319 202.593H463.481L425.256 181.045L481.375 150.594ZM308.131 202.593L348.967 180.435L293.874 149.378L261.183 202.593H308.131ZM217.333 202.593L261.304 131.018L127.556 55.622V202.593H217.333ZM89.9527 -7.97087L280.649 99.5277L387.251 -74L494.909 101.247L680.183 0.716583V202.593L887.371 202.593L781.398 381.808L964 484.744L790.562 582.514L903.508 766.368H680.183V971.09L493.004 869.526L382.739 1056L274.711 873.307L89.9527 977.458V766.368H-129.006L-21.0327 590.608L-214 485.903L-17.4346 379.246L-121.892 202.593L89.9527 202.593V-7.97087ZM387.288 159.642L313.219 117.888L387.251 -2.62193L462.022 119.091L387.288 159.642ZM822.24 239.308L748.833 363.451L680.183 324.751V239.308L822.24 239.308ZM730.031 395.247L680.183 367.147V402.838L703.296 440.461L730.031 395.247ZM606.8 283.384L642.579 303.554V239.308H579.723L606.8 283.384ZM464.415 766.368L423.16 789.624L478.935 819.888L510.582 766.368H464.415ZM302.887 766.368L346.872 790.234L288.474 823.153L254.896 766.368H302.887ZM385.193 811.027L307.276 854.95L382.739 982.569L460.131 851.689L385.193 811.027ZM211.476 766.368L255.909 841.511L127.556 913.866V766.368H211.476ZM189.766 729.652H127.556V671.233L168.291 693.335L189.766 729.652ZM89.9527 608.825V560.854L65.99 520.33L31.2072 576.949L89.9527 608.825ZM89.9527 409.945V362.981L34.2429 393.21L66.6085 447.945L89.9527 409.945ZM171.935 276.494L127.556 300.574V239.309H194.778L171.935 276.494ZM89.9527 320.977V239.309L-56.761 239.309L15.4387 361.409L89.9527 320.977ZM89.9527 729.652V650.829L11.8542 608.452L-62.6017 729.652H89.9527ZM642.579 665.934L598.797 690.615L575.713 729.652H642.579V665.934ZM680.183 729.652V644.736L757.992 600.874L837.103 729.652H680.183ZM680.183 602.341L738.647 569.384L703.914 512.846L680.183 552.979V602.341ZM725.42 476.476L771.217 551.024L888.793 484.744L762.597 413.605L725.42 476.476ZM642.579 766.368H554.003L511.808 837.725L642.579 908.682V766.368ZM-1.67972 559.105L44.4838 483.959L1.36961 411.047L-136.588 485.903L-1.67972 559.105ZM387.825 222.492C237.805 222.492 112.435 337.679 112.435 484.211C112.435 630.742 237.805 745.929 387.825 745.929C537.846 745.929 663.215 630.742 663.215 484.211C663.215 337.679 537.846 222.492 387.825 222.492Z" fill="#F39314"/>
<g opacity="0.4">
<path d="M300.02 591.446L357.661 557.837L357.568 557.812L357.689 557.743L346.624 554.829L338.796 552.695L338.709 552.745L306.14 544.168L350.069 519.092L331.046 514.082L287.164 539.17L287.084 539.149L269.932 548.974L321.462 562.544L288.701 581.071C292.645 585.316 295.072 587.606 300.02 591.446Z" fill="#F39314"/>
<path d="M444.376 449.821L451.325 461.65L289.306 553.587L282.357 541.758L444.376 449.821Z" fill="#F39314"/>
<path d="M299.784 591.446C295.267 587.711 292.804 585.501 288.702 581.071L320.296 563.299L327.245 575.128L299.784 591.446Z" fill="#F39314"/>
<path fill-rule="evenodd" clip-rule="evenodd" d="M359.432 505.907C368.288 520.983 387.903 526.149 403.242 517.444C418.582 508.74 423.837 489.462 414.981 474.385C406.125 459.309 386.51 454.143 371.171 462.848C355.831 471.552 350.575 490.83 359.432 505.907ZM347.396 512.736C360.09 534.346 388.204 541.75 410.191 529.273C432.178 516.797 439.711 489.165 427.017 467.556C414.323 445.946 386.208 438.542 364.222 451.018C342.235 463.495 334.702 491.127 347.396 512.736Z" fill="#F39314"/>
</g>
<path opacity="0.3" fill-rule="evenodd" clip-rule="evenodd" d="M285.388 369.355C279.478 361.41 271.775 351.055 294.143 319.094C310.562 295.632 286.564 285.754 278.986 284.519C302.291 266.793 347.189 272.176 339.611 333.915C338.348 344.205 353.917 346.262 353.504 335.15C350.978 267.235 416.655 272.175 424.233 284.519C408.235 290.694 382.048 308.477 405.288 330.21C409.255 311.902 424.923 307.539 439.051 303.605C456.404 298.773 471.433 294.588 459.597 266C482.331 267.235 528.996 306.327 469.701 342.558C459.597 348.732 469.701 360.76 478.542 352.436C512.644 320.331 553.221 333.701 564.427 367.254C546.745 361.08 512.139 356.882 515.17 389.481C515.197 389.769 515.898 389.251 517.117 388.35C521.128 385.388 530.745 378.284 540.43 382.072C543.744 383.692 546.914 385.279 549.944 386.797C579.245 401.471 595.45 409.586 602.318 377.133C614.527 403.064 620.758 451.962 548.008 440.108C540.43 438.873 537.313 455.01 553.06 453.691C597.266 449.986 626.512 487.591 601.055 521.605C594.319 505.964 575.037 480.609 551.797 504.318C570.726 504.878 575.848 520.975 580.651 536.067C586.423 554.206 591.734 570.895 620 557.414C620 589.519 565.69 610.511 540.43 563.588C535.777 554.945 524.011 571.174 531.589 577.171C558.112 598.163 563.417 649.778 513.907 658.668C522.327 644.674 530.326 615.45 494.962 610.511C507.425 624.911 499.052 639.063 491.156 652.409C481.448 668.818 472.46 684.009 503.803 696.948C480.226 708.061 434.842 713 441.915 643.851C443.052 632.738 428.022 633.972 428.022 646.32C428.443 673.075 411.098 721.644 353.504 696.948C371.186 690.362 400.488 671.264 376.238 647.555C377.382 664.329 360.399 669.963 344.168 675.348C324.552 681.856 306.033 688 321.929 713C296.669 709.296 259.124 673.373 313.088 636.442C325.718 627.798 304.247 615.45 297.932 630.268C288.156 653.206 227.203 657.434 217.099 611.746C231.834 620.389 262.315 627.798 266.356 588.285C252.241 606.11 237.029 597.159 222.508 588.613C205.846 578.808 190.093 569.538 177.945 601.867C165.736 578.818 159.86 530.313 232.255 538.892C239.833 539.79 243.622 525.309 228.466 525.309C198.153 526.544 151.422 506.787 180.471 456.16C185.102 471.389 201.185 496.415 228.466 474.682C209.262 474.682 205.466 460.607 201.716 446.701C197.08 429.511 192.514 412.581 159 422.82C168.262 397.713 197.901 361.08 242.359 415.412C249.432 424.055 258.117 410.472 251.2 404.298C231.834 387.011 201.942 335.15 265.093 320.331C250.556 353.491 260.407 361.567 286.564 370.955C286.188 370.429 285.792 369.898 285.388 369.355ZM388.868 624.094C464.203 624.094 525.274 564.387 525.274 490.735C525.274 417.083 464.203 357.376 388.868 357.376C313.534 357.376 252.463 417.083 252.463 490.735C252.463 564.387 313.534 624.094 388.868 624.094Z" fill="#F39314"/>
<path opacity="0.6" fill-rule="evenodd" clip-rule="evenodd" d="M413.464 415.363L422.387 430.011H440.151V400.76L413.464 415.363ZM406.624 419.105L413.268 430.011H402.902L394.952 425.492L406.624 419.105ZM370.593 430.011L379.086 425.364L367.627 418.85L360.828 430.011H370.593ZM351.709 430.011L360.854 414.999L333.037 399.186V430.011H351.709ZM325.216 385.849L364.877 408.395L387.048 372L409.439 408.755L447.972 387.671V430.011L491.063 430.011L469.023 467.599L507 489.188L470.928 509.694L494.419 548.254H447.972V591.191L409.042 569.89L386.11 609L363.642 570.683L325.216 592.527V548.254H279.677L302.133 511.391L262 489.431L302.882 467.061L281.157 430.011L325.216 430.011V385.849ZM387.056 421.003L371.651 412.246L387.048 386.97L402.599 412.498L387.056 421.003ZM477.517 437.712L462.25 463.748L447.972 455.632V437.712L477.517 437.712ZM458.339 470.417L447.972 464.524V472.009L452.779 479.9L458.339 470.417ZM432.71 446.956L440.151 451.186V437.712H427.078L432.71 446.956ZM403.097 548.254L394.516 553.132L406.116 559.479L412.698 548.254H403.097ZM369.502 548.254L378.65 553.26L366.504 560.164L359.521 548.254H369.502ZM386.62 557.621L370.415 566.833L386.11 593.599L402.205 566.149L386.62 557.621ZM350.49 548.254L359.732 564.014L333.037 579.19V548.254H350.49ZM345.975 540.554H333.037V528.301L341.509 532.937L345.975 540.554ZM325.216 515.212V505.151L320.232 496.651L312.998 508.527L325.216 515.212ZM325.216 473.5V463.65L313.629 469.99L320.361 481.47L325.216 473.5ZM342.267 445.511L333.037 450.561V437.712H347.018L342.267 445.511ZM325.216 454.84V437.712L294.703 437.712L309.719 463.32L325.216 454.84ZM325.216 540.554V524.022L308.973 515.134L293.488 540.554H325.216ZM440.151 527.19L431.045 532.366L426.244 540.554H440.151V527.19ZM447.972 540.554V522.744L464.154 513.544L480.608 540.554H447.972ZM447.972 513.852L460.131 506.94L452.907 495.082L447.972 503.499V513.852ZM457.38 487.454L466.905 503.089L491.359 489.188L465.112 474.268L457.38 487.454ZM440.151 548.254H421.729L412.953 563.22L440.151 578.102V548.254ZM306.158 504.784L315.759 489.023L306.792 473.731L278.1 489.431L306.158 504.784ZM387.167 434.185C355.966 434.185 329.892 458.343 329.892 489.076C329.892 519.809 355.966 543.967 387.167 543.967C418.369 543.967 444.443 519.809 444.443 489.076C444.443 458.343 418.369 434.185 387.167 434.185Z" fill="#F5F5F5"/>
<g opacity="0.3">
<path d="M388.862 468.846L354.57 502.629L354.638 502.629L354.568 502.698H362.69L368.451 502.748L368.501 502.698H392.408L367.004 527.827H380.968L406.338 502.698H406.397L416.31 492.864H378.483L402.863 468.846H388.862Z" fill="#F39314"/>
<path d="M344.278 464.238H432.213V471.61H344.278V464.238Z" fill="#F39314"/>
</g>
</svg>
