<svg width="56" height="56" viewBox="0 0 56 56" fill="none" xmlns="http://www.w3.org/2000/svg">
<g id="fluent:sport-soccer-16-filled">
<path id="Vector" d="M9.3335 27.9999C9.3335 23.0492 11.3002 18.3013 14.8008 14.8006C18.3015 11.2999 23.0495 9.33325 28.0002 9.33325C32.9509 9.33325 37.6988 11.2999 41.1995 14.8006C44.7002 18.3013 46.6668 23.0492 46.6668 27.9999C46.6668 32.9506 44.7002 37.6986 41.1995 41.1992C37.6988 44.6999 32.9509 46.6666 28.0002 46.6666C23.0495 46.6666 18.3015 44.6999 14.8008 41.1992C11.3002 37.6986 9.3335 32.9506 9.3335 27.9999ZM21.2313 13.7271C19.1363 14.7234 17.2854 16.1674 15.8094 17.9573L17.6674 23.9995L20.5565 24.9616L26.5643 20.3954V17.2824L21.2313 13.7271ZM12.3087 29.8206C12.5959 32.3047 13.4574 34.6165 14.7583 36.6124H20.2262L22.0498 34.7888L19.6863 27.6955L16.7456 26.7162L12.3087 29.8206ZM24.801 43.4674C26.9117 43.9018 29.0887 43.9018 31.1993 43.4674L33.4681 38.3671L31.7134 36.6153H24.2869L22.5351 38.3671L24.801 43.4703V43.4674ZM41.2391 36.6153C42.5027 34.6797 43.3528 32.4512 43.6629 30.0533L39.2289 26.7277L36.314 27.6984L33.9505 34.7917L35.7741 36.6153H41.2391ZM40.1536 17.9113C38.6838 16.1414 36.8464 14.7127 34.769 13.7242L29.4361 17.2824V20.3954L35.4439 24.9616L38.3271 24.0024L40.1536 17.9113Z" fill="#F39314"/>
</g>
</svg>
