<svg width="1440" height="1235" viewBox="0 0 1440 1235" fill="none" xmlns="http://www.w3.org/2000/svg">
<g filter="url(#filter0_f_53_885)">
<circle cx="80.5" cy="146.5" r="232.5" fill="#F39314"/>
</g>
<g filter="url(#filter1_f_53_885)">
<circle cx="1095" cy="424" r="271" fill="#F39314"/>
</g>
<path opacity="0.1" fill-rule="evenodd" clip-rule="evenodd" d="M1241.8 -14.0737L1290.57 65.2881H1387.65V-93.188L1241.8 -14.0737ZM1204.41 6.20279L1240.72 65.2881H1184.07L1140.62 40.8032L1204.41 6.20279ZM1007.49 65.2882L1053.91 40.1104L991.286 4.82076L954.127 65.2882H1007.49ZM904.285 65.2882L954.265 -16.0417L802.237 -101.713V65.2882H904.285ZM759.495 -173.972L976.254 -51.8234L1097.43 -249L1219.8 -49.87L1430.39 -164.101V65.2881L1665.9 65.2881L1545.44 268.927L1753 385.891L1555.86 496.986L1684.24 705.896H1430.39V938.518L1217.63 823.113L1092.3 1035L969.504 827.41L759.495 945.755V705.896H510.61L633.341 506.183L414 387.209L637.43 266.016L518.697 65.2882L759.495 65.2882V-173.972ZM1097.47 16.4836L1013.28 -30.961L1097.43 -167.894L1182.42 -29.5935L1097.47 16.4836ZM1591.87 107.007L1508.43 248.068L1430.39 204.095V107.007L1591.87 107.007ZM1487.05 284.198L1430.39 252.268V292.823L1456.66 335.573L1487.05 284.198ZM1346.98 157.09L1387.65 180.008V107.007H1316.2L1346.98 157.09ZM1185.14 705.896L1138.24 732.322L1201.64 766.71L1237.61 705.896H1185.14ZM1001.53 705.896L1051.53 733.015L985.149 770.42L946.982 705.896H1001.53ZM1095.09 756.641L1006.52 806.55L1092.3 951.562L1180.27 802.845L1095.09 756.641ZM897.627 705.896L948.133 791.28L802.237 873.495V705.896H897.627ZM872.949 664.177H802.237V597.795L848.539 622.91L872.949 664.177ZM759.495 526.883V472.374L732.257 426.327L692.72 490.663L759.495 526.883ZM759.495 300.898V247.535L696.171 281.883L732.96 344.077L759.495 300.898ZM852.681 149.26L802.237 176.622V107.007H878.647L852.681 149.26ZM759.495 199.806V107.007L592.729 107.007L674.797 245.748L759.495 199.806ZM759.495 664.177V574.611L670.722 526.459L586.09 664.177H759.495ZM1387.65 591.774L1337.88 619.819L1311.65 664.177H1387.65V591.774ZM1430.39 664.177V567.688L1518.84 517.848L1608.76 664.177H1430.39ZM1430.39 519.515L1496.85 482.066L1457.37 417.823L1430.39 463.426V519.515ZM1481.81 376.496L1533.87 461.204L1667.51 385.891L1524.07 305.057L1481.81 376.496ZM1387.65 705.896H1286.97L1239.01 786.978L1387.65 867.605V705.896ZM655.339 470.387L707.811 385L658.805 302.151L501.992 387.209L655.339 470.387ZM1098.08 87.8992C927.554 87.8992 785.05 218.784 785.05 385.286C785.05 551.787 927.554 682.672 1098.08 682.672C1268.6 682.672 1411.11 551.787 1411.11 385.286C1411.11 218.784 1268.6 87.8992 1098.08 87.8992Z" fill="#F39314"/>
<g opacity="0.4">
<path d="M1199.52 277.24L1131.95 315.495L1132.06 315.524L1131.92 315.603L1144.54 318.914L1153.47 321.339L1153.57 321.283L1190.71 331.031L1140.61 359.528L1162.31 365.222L1212.36 336.71L1212.45 336.734L1232.01 325.569L1173.24 310.146L1221.28 282.948L1199.52 277.24Z" fill="#F39314"/>
<path d="M996.748 507.751L1064.32 469.495L1064.21 469.466L1064.35 469.388L1051.73 466.076L1042.8 463.651L1042.7 463.707L1005.56 453.96L1055.66 425.462L1033.96 419.768L983.917 448.28L983.825 448.256L964.263 459.422L1023.03 474.844L974.994 502.042L996.748 507.751Z" fill="#F39314"/>
<path d="M1163.22 346.737L1171.14 360.181L986.359 464.665L978.434 451.221L1163.22 346.737Z" fill="#F39314"/>
<path d="M1213.63 269.276L1221.55 282.72L1174.56 309.289L1166.64 295.845L1213.63 269.276Z" fill="#F39314"/>
<path d="M982.642 515.714L974.717 502.271L1021.7 475.702L1029.63 489.146L982.642 515.714Z" fill="#F39314"/>
<path fill-rule="evenodd" clip-rule="evenodd" d="M1066.34 410.477C1076.44 427.611 1098.81 433.482 1116.31 423.589C1133.8 413.697 1139.79 391.788 1129.69 374.654C1119.59 357.52 1097.22 351.65 1079.73 361.542C1062.23 371.434 1056.24 393.343 1066.34 410.477ZM1052.61 418.239C1067.09 442.798 1099.15 451.212 1124.23 437.033C1149.31 422.854 1157.9 391.451 1143.42 366.893C1128.94 342.334 1096.88 333.92 1071.8 348.098C1046.73 362.277 1038.13 393.68 1052.61 418.239Z" fill="#F39314"/>
</g>
<path fill-rule="evenodd" clip-rule="evenodd" d="M982.255 255.469C975.514 246.443 966.73 234.68 992.238 198.372C1010.96 171.72 983.596 160.499 974.954 159.095C1001.53 138.959 1052.73 145.073 1044.09 215.209C1042.65 226.898 1060.4 229.236 1059.93 216.612C1057.05 139.461 1131.95 145.072 1140.59 159.095C1122.35 166.11 1092.48 186.312 1118.99 211C1123.51 190.202 1141.38 185.246 1157.49 180.777C1177.28 175.288 1194.42 170.534 1180.92 138.058C1206.84 139.461 1260.06 183.869 1192.44 225.027C1180.92 232.041 1192.44 245.705 1202.52 236.249C1241.41 199.778 1287.69 214.966 1300.47 253.082C1280.3 246.068 1240.84 241.299 1244.29 278.331C1244.32 278.658 1245.12 278.07 1246.51 277.047C1251.09 273.682 1262.06 265.612 1273.1 269.915C1276.88 271.755 1280.49 273.558 1283.95 275.282C1317.36 291.952 1335.84 301.171 1343.68 264.304C1357.6 293.761 1364.7 349.31 1281.74 335.843C1273.1 334.441 1269.55 352.772 1287.5 351.273C1337.91 347.065 1371.27 389.784 1342.23 428.424C1334.55 410.656 1312.56 381.853 1286.06 408.785C1307.65 409.422 1313.49 427.708 1318.97 444.852C1325.55 465.458 1331.61 484.416 1363.84 469.103C1363.84 505.574 1301.91 529.42 1273.1 476.117C1267.79 466.297 1254.38 484.733 1263.02 491.547C1293.26 515.393 1299.31 574.027 1242.85 584.127C1252.46 568.229 1261.58 535.031 1221.25 529.42C1235.46 545.779 1225.91 561.855 1216.91 577.016C1205.84 595.657 1195.59 612.914 1231.33 627.612C1204.44 640.236 1152.69 645.847 1160.75 567.294C1162.05 554.67 1144.91 556.072 1144.91 570.1C1145.39 600.492 1125.61 655.666 1059.93 627.612C1080.1 620.13 1113.51 598.435 1085.86 571.502C1087.16 590.557 1067.8 596.957 1049.29 603.075C1026.92 610.467 1005.8 617.447 1023.92 645.847C995.118 641.639 952.304 600.831 1013.84 558.878C1028.25 549.059 1003.76 535.031 996.559 551.864C985.41 577.922 915.901 582.724 904.378 530.823C921.182 540.642 955.942 549.059 960.551 504.171C944.454 524.421 927.107 514.252 910.548 504.545C891.546 493.406 873.581 482.875 859.729 519.601C845.806 493.417 839.105 438.316 921.662 448.062C930.304 449.082 934.625 432.632 917.341 432.632C882.774 434.035 829.482 411.591 862.609 354.079C867.89 371.379 886.231 399.808 917.341 375.12C895.442 375.12 891.113 359.13 886.836 343.333C881.549 323.806 876.342 304.574 838.124 316.205C848.686 287.683 882.486 246.068 933.185 307.789C941.25 317.608 951.154 302.178 943.267 295.164C921.182 275.526 887.095 216.612 959.11 199.778C942.533 237.447 953.766 246.622 983.596 257.287C983.166 256.689 982.715 256.085 982.255 255.469ZM1100.26 544.85C1186.17 544.85 1255.82 477.024 1255.82 393.355C1255.82 309.687 1186.17 241.86 1100.26 241.86C1014.35 241.86 944.707 309.687 944.707 393.355C944.707 477.024 1014.35 544.85 1100.26 544.85Z" fill="#F39314"/>
<path fill-rule="evenodd" clip-rule="evenodd" d="M1128.23 307.938L1138.43 324.561H1158.73V291.368L1128.23 307.938ZM1120.41 312.185L1128.01 324.561H1116.16L1107.07 319.432L1120.41 312.185ZM1079.23 324.561L1088.94 319.287L1075.84 311.896L1068.07 324.561H1079.23ZM1057.65 324.561L1068.1 307.526L1036.31 289.582V324.561H1057.65ZM1027.37 274.447L1072.7 300.032L1098.04 258.733L1123.63 300.441L1167.67 276.515V324.561L1216.92 324.561L1191.73 367.213L1235.14 391.711L1193.91 414.98L1220.76 458.736H1167.67V507.458L1123.18 483.287L1096.97 527.667L1071.29 484.187L1027.37 508.974V458.736H975.32L1000.99 416.906L955.116 391.987L1001.84 366.603L977.011 324.561L1027.37 324.561V274.447ZM1098.05 314.338L1080.44 304.401L1098.04 275.72L1115.81 304.688L1098.05 314.338ZM1201.44 333.299L1183.99 362.844L1167.67 353.634V333.299L1201.44 333.299ZM1179.52 370.411L1167.67 363.723V372.218L1173.17 381.172L1179.52 370.411ZM1150.23 343.788L1158.73 348.589V333.299H1143.79L1150.23 343.788ZM1116.38 458.736L1106.57 464.271L1119.83 471.473L1127.36 458.736H1116.38ZM1077.98 458.736L1088.44 464.416L1074.56 472.25L1066.58 458.736H1077.98ZM1097.55 469.364L1079.03 479.818L1096.97 510.191L1115.36 479.042L1097.55 469.364ZM1056.26 458.736L1066.82 476.619L1036.31 493.839V458.736H1056.26ZM1051.09 449.998H1036.31V436.094L1045.99 441.354L1051.09 449.998ZM1027.37 421.241V409.825L1021.67 400.18L1013.4 413.655L1027.37 421.241ZM1027.37 373.909V362.732L1014.13 369.926L1021.82 382.953L1027.37 373.909ZM1046.86 342.148L1036.31 347.879V333.299H1052.29L1046.86 342.148ZM1027.37 352.735V333.299L992.493 333.299L1009.66 362.358L1027.37 352.735ZM1027.37 449.998V431.238L1008.8 421.153L991.105 449.998H1027.37ZM1158.73 434.833L1148.33 440.707L1142.84 449.998H1158.73V434.833ZM1167.67 449.998V429.788L1186.17 419.349L1204.97 449.998H1167.67ZM1167.67 419.698L1181.57 411.855L1173.31 398.399L1167.67 407.95V419.698ZM1178.42 389.743L1189.31 407.485L1217.26 391.711L1187.26 374.78L1178.42 389.743ZM1158.73 458.736H1137.68L1127.65 475.718L1158.73 492.606V458.736ZM1005.59 409.408L1016.56 391.524L1006.31 374.171L973.518 391.987L1005.59 409.408ZM1098.18 329.296C1062.51 329.296 1032.71 356.71 1032.71 391.584C1032.71 426.458 1062.51 453.872 1098.18 453.872C1133.84 453.872 1163.64 426.458 1163.64 391.584C1163.64 356.71 1133.84 329.296 1098.18 329.296Z" fill="white"/>
<g filter="url(#filter2_ddddd_53_885)">
<path d="M1099.91 368.358L1060.79 406.752L1060.87 406.752L1060.79 406.831H1070.06L1076.63 406.888L1076.68 406.831H1103.95L1074.98 435.389H1090.9L1119.84 406.831H1119.9L1131.21 395.654H1088.07L1115.87 368.358H1099.91Z" fill="#F39314"/>
<path d="M1049.06 363.122H1149.35V371.5H1049.06V363.122Z" fill="#F39314"/>
</g>
<defs>
<filter id="filter0_f_53_885" x="-468" y="-402" width="1097" height="1097" filterUnits="userSpaceOnUse" color-interpolation-filters="sRGB">
<feFlood flood-opacity="0" result="BackgroundImageFix"/>
<feBlend mode="normal" in="SourceGraphic" in2="BackgroundImageFix" result="shape"/>
<feGaussianBlur stdDeviation="158" result="effect1_foregroundBlur_53_885"/>
</filter>
<filter id="filter1_f_53_885" x="284" y="-387" width="1622" height="1622" filterUnits="userSpaceOnUse" color-interpolation-filters="sRGB">
<feFlood flood-opacity="0" result="BackgroundImageFix"/>
<feBlend mode="normal" in="SourceGraphic" in2="BackgroundImageFix" result="shape"/>
<feGaussianBlur stdDeviation="270" result="effect1_foregroundBlur_53_885"/>
</filter>
<filter id="filter2_ddddd_53_885" x="1046.06" y="362.122" width="106.291" height="83.2676" filterUnits="userSpaceOnUse" color-interpolation-filters="sRGB">
<feFlood flood-opacity="0" result="BackgroundImageFix"/>
<feColorMatrix in="SourceAlpha" type="matrix" values="0 0 0 0 0 0 0 0 0 0 0 0 0 0 0 0 0 0 127 0" result="hardAlpha"/>
<feOffset/>
<feColorMatrix type="matrix" values="0 0 0 0 0 0 0 0 0 0 0 0 0 0 0 0 0 0 0.2 0"/>
<feBlend mode="normal" in2="BackgroundImageFix" result="effect1_dropShadow_53_885"/>
<feColorMatrix in="SourceAlpha" type="matrix" values="0 0 0 0 0 0 0 0 0 0 0 0 0 0 0 0 0 0 127 0" result="hardAlpha"/>
<feOffset/>
<feGaussianBlur stdDeviation="0.5"/>
<feColorMatrix type="matrix" values="0 0 0 0 0 0 0 0 0 0 0 0 0 0 0 0 0 0 0.2 0"/>
<feBlend mode="normal" in2="effect1_dropShadow_53_885" result="effect2_dropShadow_53_885"/>
<feColorMatrix in="SourceAlpha" type="matrix" values="0 0 0 0 0 0 0 0 0 0 0 0 0 0 0 0 0 0 127 0" result="hardAlpha"/>
<feOffset dy="2"/>
<feGaussianBlur stdDeviation="1"/>
<feColorMatrix type="matrix" values="0 0 0 0 0 0 0 0 0 0 0 0 0 0 0 0 0 0 0.17 0"/>
<feBlend mode="normal" in2="effect2_dropShadow_53_885" result="effect3_dropShadow_53_885"/>
<feColorMatrix in="SourceAlpha" type="matrix" values="0 0 0 0 0 0 0 0 0 0 0 0 0 0 0 0 0 0 127 0" result="hardAlpha"/>
<feOffset dy="4"/>
<feGaussianBlur stdDeviation="1"/>
<feColorMatrix type="matrix" values="0 0 0 0 0 0 0 0 0 0 0 0 0 0 0 0 0 0 0.1 0"/>
<feBlend mode="normal" in2="effect3_dropShadow_53_885" result="effect4_dropShadow_53_885"/>
<feColorMatrix in="SourceAlpha" type="matrix" values="0 0 0 0 0 0 0 0 0 0 0 0 0 0 0 0 0 0 127 0" result="hardAlpha"/>
<feOffset dy="7"/>
<feGaussianBlur stdDeviation="1.5"/>
<feColorMatrix type="matrix" values="0 0 0 0 0 0 0 0 0 0 0 0 0 0 0 0 0 0 0.03 0"/>
<feBlend mode="normal" in2="effect4_dropShadow_53_885" result="effect5_dropShadow_53_885"/>
<feBlend mode="normal" in="SourceGraphic" in2="effect5_dropShadow_53_885" result="shape"/>
</filter>
</defs>
</svg>

