<svg width="375" height="953" viewBox="0 0 375 953" fill="none" xmlns="http://www.w3.org/2000/svg">
<g opacity="0.7" filter="url(#filter0_f_54_2260)">
<circle cx="-69.5" cy="474.5" r="120.5" fill="#F39314"/>
</g>
<path opacity="0.1" fill-rule="evenodd" clip-rule="evenodd" d="M361.228 19.1981L388.873 64.1945H443.905V-25.658L361.228 19.1981ZM340.039 30.6944L360.621 64.1945H328.509L303.88 50.3121L340.039 30.6944ZM228.415 64.1945L254.727 49.9193L219.229 29.9108L198.166 64.1945H228.415ZM169.913 64.1945L198.244 18.0823L112.069 -30.4913V64.1945H169.913ZM87.8405 -71.4609L210.708 -2.20519L279.393 -114L348.759 -1.09762L468.133 -65.864V64.1945L601.627 64.1945L533.347 179.654L651 245.97L539.252 308.958L612.024 427.405H468.133V559.297L347.531 493.865L276.487 614L206.882 496.301L87.8405 563.4V427.405H-53.2373L16.3312 314.172L-108 246.716L18.6495 178.003L-48.6536 64.1946L87.8405 64.1945V-71.4609ZM279.418 36.5234L231.694 9.62337L279.393 -68.0148L327.569 10.3987L279.418 36.5234ZM559.662 87.8483L512.365 167.827L468.133 142.895V87.8483L559.662 87.8483ZM500.251 188.311L468.133 170.208V193.202L483.025 217.44L500.251 188.311ZM420.852 116.244L443.905 129.238V87.8483H403.406L420.852 116.244ZM329.111 427.405L302.53 442.388L338.467 461.885L358.857 427.405H329.111ZM225.037 427.405L253.376 442.781L215.751 463.989L194.116 427.405H225.037ZM278.067 456.177L227.865 484.474L276.487 566.692L326.351 482.373L278.067 456.177ZM166.139 427.405L194.768 475.816L112.069 522.43V427.405H166.139ZM152.151 403.751H112.069V366.114L138.315 380.354L152.151 403.751ZM87.8405 325.908V295.003L72.401 268.896L49.99 305.373L87.8405 325.908ZM87.8405 197.78V167.524L51.946 186.999L72.7995 222.262L87.8405 197.78ZM140.662 111.805L112.069 127.318V87.8483H155.381L140.662 111.805ZM87.8405 140.463V87.8483L-6.68896 87.8483L39.8302 166.511L87.8405 140.463ZM87.8405 403.751V352.969L37.5206 325.668L-10.4522 403.751H87.8405ZM443.905 362.701L415.695 378.601L400.822 403.751H443.905V362.701ZM468.133 403.751V349.044L518.266 320.786L569.239 403.751H468.133ZM468.133 321.731L505.802 300.499L483.423 264.074L468.133 289.93V321.731ZM497.28 240.643L526.787 288.67L602.543 245.97L521.233 200.138L497.28 240.643ZM443.905 427.405H386.834L359.647 473.377L443.905 519.091V427.405ZM28.8006 293.876L58.5443 245.464L30.7653 198.49L-58.1226 246.716L28.8006 293.876ZM279.764 77.0145C183.104 77.0145 102.326 151.224 102.326 245.626C102.326 340.029 183.104 414.238 279.764 414.238C376.424 414.238 457.201 340.029 457.201 245.626C457.201 151.224 376.424 77.0145 279.764 77.0145Z" fill="#F39314"/>
<g filter="url(#filter1_f_54_2260)">
<ellipse cx="280.5" cy="254.5" rx="157.5" ry="158.5" fill="#F39314"/>
</g>
<g opacity="0.4">
<path d="M337.108 184.358L298.822 206.051L298.882 206.067L298.804 206.112L305.954 207.99L311.013 209.365L311.069 209.333L332.115 214.86L303.727 231.02L316.021 234.248L344.378 218.081L344.43 218.094L355.514 211.763L322.214 203.018L349.434 187.595L337.108 184.358Z" fill="#F39314"/>
<path d="M222.213 315.069L260.5 293.376L260.44 293.36L260.518 293.316L253.368 291.438L248.309 290.063L248.253 290.095L227.206 284.567L255.594 268.407L243.301 265.179L214.943 281.347L214.891 281.333L203.807 287.664L237.107 296.41L209.888 311.832L222.213 315.069Z" fill="#F39314"/>
<path d="M316.537 223.767L321.027 231.39L216.327 290.637L211.837 283.014L316.537 223.767Z" fill="#F39314"/>
<path d="M345.098 179.843L349.589 187.466L322.965 202.532L318.475 194.908L345.098 179.843Z" fill="#F39314"/>
<path d="M214.221 319.585L209.731 311.962L236.354 296.896L240.845 304.519L214.221 319.585Z" fill="#F39314"/>
<path fill-rule="evenodd" clip-rule="evenodd" d="M261.644 259.91C267.367 269.626 280.043 272.955 289.955 267.346C299.868 261.736 303.264 249.313 297.541 239.597C291.818 229.881 279.143 226.552 269.23 232.162C259.317 237.771 255.921 250.195 261.644 259.91ZM253.866 264.312C262.07 278.238 280.238 283.009 294.446 274.969C308.654 266.929 313.522 249.122 305.319 235.196C297.116 221.27 278.948 216.498 264.74 224.538C250.531 232.579 245.663 250.386 253.866 264.312Z" fill="#F39314"/>
</g>
<path fill-rule="evenodd" clip-rule="evenodd" d="M214.002 172.013C210.183 166.895 205.205 160.225 219.658 139.636C230.267 124.523 214.762 118.16 209.865 117.364C224.923 105.946 253.934 109.413 249.037 149.183C248.221 155.812 258.281 157.137 258.014 149.979C256.382 106.23 298.819 109.413 303.715 117.364C293.378 121.342 276.458 132.797 291.474 146.797C294.038 135.003 304.161 132.193 313.29 129.659C324.503 126.546 334.213 123.851 326.566 105.435C341.255 106.23 371.408 131.412 333.095 154.751C326.566 158.728 333.095 166.476 338.807 161.114C360.842 140.433 387.06 149.046 394.301 170.659C382.876 166.682 360.515 163.978 362.474 184.977C362.491 185.162 362.944 184.829 363.732 184.249C366.324 182.34 372.538 177.765 378.796 180.204C380.937 181.248 382.985 182.271 384.943 183.248C403.876 192.701 414.346 197.928 418.784 177.023C426.673 193.727 430.699 225.225 383.692 217.589C378.796 216.794 376.782 227.189 386.956 226.339C415.52 223.952 434.417 248.176 417.968 270.087C413.615 260.011 401.156 243.679 386.14 258.951C398.371 259.312 401.681 269.681 404.784 279.403C408.514 291.087 411.945 301.838 430.209 293.154C430.209 313.835 395.117 327.357 378.796 297.131C375.789 291.563 368.186 302.017 373.083 305.881C390.221 319.403 393.648 352.651 361.658 358.378C367.098 349.364 372.267 330.539 349.416 327.357C357.469 336.633 352.059 345.749 346.957 354.346C340.684 364.916 334.877 374.702 355.129 383.036C339.895 390.195 310.571 393.377 315.141 348.833C315.875 341.674 306.164 342.47 306.164 350.424C306.436 367.658 295.228 398.945 258.014 383.036C269.44 378.794 288.373 366.492 272.704 351.22C273.443 362.024 262.47 365.654 251.982 369.123C239.307 373.315 227.341 377.272 237.612 393.377C221.29 390.99 197.031 367.85 231.9 344.061C240.06 338.493 226.187 330.539 222.106 340.084C215.79 354.86 176.405 357.583 169.877 328.152C179.398 333.72 199.093 338.493 201.704 313.039C192.583 324.522 182.755 318.756 173.372 313.251C162.606 306.935 152.427 300.963 144.578 321.789C136.689 306.941 132.892 275.696 179.67 281.223C184.566 281.801 187.015 272.473 177.222 272.473C157.635 273.268 127.44 260.542 146.21 227.93C149.202 237.74 159.594 253.86 177.222 239.861C164.813 239.861 162.36 230.794 159.937 221.836C156.941 210.763 153.991 199.858 132.337 206.453C138.321 190.28 157.472 166.682 186.198 201.681C190.769 207.249 196.38 198.499 191.911 194.522C179.398 183.386 160.084 149.979 200.888 140.433C191.495 161.794 197.86 166.996 214.762 173.044C214.518 172.705 214.263 172.362 214.002 172.013ZM280.865 336.107C329.542 336.107 369.003 297.645 369.003 250.201C369.003 202.757 329.542 164.296 280.865 164.296C232.188 164.296 192.727 202.757 192.727 250.201C192.727 297.645 232.188 336.107 280.865 336.107Z" fill="#F39314"/>
<path fill-rule="evenodd" clip-rule="evenodd" d="M296.712 201.766L302.491 211.191H313.995V192.369L296.712 201.766ZM292.283 204.174L296.585 211.191H289.873L284.724 208.283L292.283 204.174ZM268.949 211.191L274.449 208.201L267.029 204.01L262.626 211.191H268.949ZM256.72 211.191L262.642 201.532L244.628 191.357V211.191H256.72ZM239.563 182.775L265.248 197.282L279.605 173.864L294.106 197.514L319.059 183.947V211.191L346.965 211.191L332.692 235.377L357.286 249.269L333.926 262.463L349.138 287.275H319.059V314.904L293.849 301.197L278.998 326.363L264.448 301.707L239.563 315.763V287.275H210.073L224.615 263.556L198.625 249.425L225.1 235.031L211.031 211.191L239.563 211.191V182.775ZM279.61 205.395L269.634 199.76L279.605 183.497L289.676 199.922L279.61 205.395ZM338.193 216.146L328.306 232.9L319.059 227.677V216.146L338.193 216.146ZM325.773 237.191L319.059 233.399V238.215L322.172 243.293L325.773 237.191ZM309.176 222.094L313.995 224.816V216.146H305.529L309.176 222.094ZM289.998 287.275L284.442 290.414L291.954 294.498L296.217 287.275H289.998ZM268.243 287.275L274.167 290.496L266.302 294.939L261.779 287.275H268.243ZM279.328 293.302L268.834 299.23L278.998 316.453L289.421 298.79L279.328 293.302ZM255.931 287.275L261.915 297.416L244.628 307.181V287.275H255.931ZM253.007 282.32H244.628V274.436L250.114 277.419L253.007 282.32ZM239.563 266.014V259.54L236.336 254.071L231.651 261.712L239.563 266.014ZM239.563 239.174V232.836L232.06 236.916L236.419 244.303L239.563 239.174ZM250.605 221.165L244.628 224.414V216.146H253.682L250.605 221.165ZM239.563 227.168V216.146L219.803 216.146L229.527 232.624L239.563 227.168ZM239.563 282.32V271.683L229.045 265.964L219.016 282.32H239.563ZM313.995 273.721L308.098 277.052L304.989 282.32H313.995V273.721ZM319.059 282.32V270.861L329.539 264.941L340.194 282.32H319.059ZM319.059 265.139L326.934 260.691L322.256 253.061L319.059 258.478V265.139ZM325.152 248.153L331.32 258.214L347.156 249.269L330.159 239.668L325.152 248.153ZM313.995 287.275H302.065L296.382 296.905L313.995 306.481V287.275ZM227.222 259.304L233.439 249.163L227.632 239.323L209.051 249.425L227.222 259.304ZM279.683 213.877C259.477 213.877 242.591 229.422 242.591 249.197C242.591 268.972 259.477 284.517 279.683 284.517C299.889 284.517 316.774 268.972 316.774 249.197C316.774 229.422 299.889 213.877 279.683 213.877Z" fill="white"/>
<g filter="url(#filter2_ddddd_54_2260)">
<path d="M280.663 236.027L258.503 257.798L258.547 257.798L258.502 257.843H263.751L267.473 257.875L267.505 257.843H282.955L266.538 274.037H275.562L291.956 257.843H291.995L298.4 251.505H273.956L289.711 236.027H280.663Z" fill="#F39314"/>
<path d="M251.852 233.057H308.677V237.809H251.852V233.057Z" fill="#F39314"/>
</g>
<defs>
<filter id="filter0_f_54_2260" x="-506" y="38" width="873" height="873" filterUnits="userSpaceOnUse" color-interpolation-filters="sRGB">
<feFlood flood-opacity="0" result="BackgroundImageFix"/>
<feBlend mode="normal" in="SourceGraphic" in2="BackgroundImageFix" result="shape"/>
<feGaussianBlur stdDeviation="158" result="effect1_foregroundBlur_54_2260"/>
</filter>
<filter id="filter1_f_54_2260" x="-417" y="-444" width="1395" height="1397" filterUnits="userSpaceOnUse" color-interpolation-filters="sRGB">
<feFlood flood-opacity="0" result="BackgroundImageFix"/>
<feBlend mode="normal" in="SourceGraphic" in2="BackgroundImageFix" result="shape"/>
<feGaussianBlur stdDeviation="270" result="effect1_foregroundBlur_54_2260"/>
</filter>
<filter id="filter2_ddddd_54_2260" x="248.852" y="232.057" width="62.825" height="51.9795" filterUnits="userSpaceOnUse" color-interpolation-filters="sRGB">
<feFlood flood-opacity="0" result="BackgroundImageFix"/>
<feColorMatrix in="SourceAlpha" type="matrix" values="0 0 0 0 0 0 0 0 0 0 0 0 0 0 0 0 0 0 127 0" result="hardAlpha"/>
<feOffset/>
<feColorMatrix type="matrix" values="0 0 0 0 0 0 0 0 0 0 0 0 0 0 0 0 0 0 0.2 0"/>
<feBlend mode="normal" in2="BackgroundImageFix" result="effect1_dropShadow_54_2260"/>
<feColorMatrix in="SourceAlpha" type="matrix" values="0 0 0 0 0 0 0 0 0 0 0 0 0 0 0 0 0 0 127 0" result="hardAlpha"/>
<feOffset/>
<feGaussianBlur stdDeviation="0.5"/>
<feColorMatrix type="matrix" values="0 0 0 0 0 0 0 0 0 0 0 0 0 0 0 0 0 0 0.2 0"/>
<feBlend mode="normal" in2="effect1_dropShadow_54_2260" result="effect2_dropShadow_54_2260"/>
<feColorMatrix in="SourceAlpha" type="matrix" values="0 0 0 0 0 0 0 0 0 0 0 0 0 0 0 0 0 0 127 0" result="hardAlpha"/>
<feOffset dy="2"/>
<feGaussianBlur stdDeviation="1"/>
<feColorMatrix type="matrix" values="0 0 0 0 0 0 0 0 0 0 0 0 0 0 0 0 0 0 0.17 0"/>
<feBlend mode="normal" in2="effect2_dropShadow_54_2260" result="effect3_dropShadow_54_2260"/>
<feColorMatrix in="SourceAlpha" type="matrix" values="0 0 0 0 0 0 0 0 0 0 0 0 0 0 0 0 0 0 127 0" result="hardAlpha"/>
<feOffset dy="4"/>
<feGaussianBlur stdDeviation="1"/>
<feColorMatrix type="matrix" values="0 0 0 0 0 0 0 0 0 0 0 0 0 0 0 0 0 0 0.1 0"/>
<feBlend mode="normal" in2="effect3_dropShadow_54_2260" result="effect4_dropShadow_54_2260"/>
<feColorMatrix in="SourceAlpha" type="matrix" values="0 0 0 0 0 0 0 0 0 0 0 0 0 0 0 0 0 0 127 0" result="hardAlpha"/>
<feOffset dy="7"/>
<feGaussianBlur stdDeviation="1.5"/>
<feColorMatrix type="matrix" values="0 0 0 0 0 0 0 0 0 0 0 0 0 0 0 0 0 0 0.03 0"/>
<feBlend mode="normal" in2="effect4_dropShadow_54_2260" result="effect5_dropShadow_54_2260"/>
<feBlend mode="normal" in="SourceGraphic" in2="effect5_dropShadow_54_2260" result="shape"/>
</filter>
</defs>
</svg>
